<svg xmlns="http://www.w3.org/2000/svg" width="16" height="16" viewBox="0 0 16 16">
    <path fill="#000" fill-rule="evenodd" d="M16 4.82v6.36A4.82 4.82 0 0 1 11.18 16H4.82A4.82 4.82 0 0 1 0 11.18V4.82A4.82 4.82 0 0 1 4.82 0h6.36A4.82 4.82 0 0 1 16 4.82zm-1.51 6.36V4.82a3.31 3.31 0 0 0-3.31-3.31H4.82a3.31 3.31 0 0 0-3.31 3.31v6.36a3.31 3.31 0 0 0 3.31 3.31h6.36a3.31 3.31 0 0 0 3.31-3.31zM8.027 4.153a3.956 3.956 0 0 1 3.952 3.951 3.956 3.956 0 0 1-3.952 3.951 3.956 3.956 0 0 1-3.951-3.95 3.956 3.956 0 0 1 3.951-3.952zm0 6.482a2.534 2.534 0 0 0 2.531-2.53 2.534 2.534 0 0 0-2.531-2.532 2.534 2.534 0 0 0-2.531 2.531 2.534 2.534 0 0 0 2.531 2.531zm4.182-7.688a.94.94 0 1 1 0 1.882.94.94 0 0 1 0-1.882z"/>
</svg>
