<svg xmlns="http://www.w3.org/2000/svg" width="30" height="30" viewBox="0 0 30 30">
    <path fill="#000" fill-rule="evenodd" d="M22.75 18.632a3.906 3.906 0 0 1-3.906 3.906h-7.506a3.906 3.906 0 0 1-3.906-3.906v-7.507a3.906 3.906 0 0 1 3.906-3.905h7.506a3.906 3.906 0 0 1 3.906 3.905v7.507zm1.782-7.507a5.687 5.687 0 0 0-5.688-5.687h-7.506a5.687 5.687 0 0 0-5.687 5.687v7.507a5.687 5.687 0 0 0 5.687 5.687h7.506a5.687 5.687 0 0 0 5.688-5.687v-7.507zm-9.409 6.862A2.99 2.99 0 0 1 12.136 15a2.99 2.99 0 0 1 2.987-2.987A2.99 2.99 0 0 1 18.11 15a2.99 2.99 0 0 1-2.987 2.986zm0-7.65a4.668 4.668 0 0 0-4.662 4.664 4.668 4.668 0 0 0 4.662 4.662 4.668 4.668 0 0 0 4.663-4.662 4.668 4.668 0 0 0-4.663-4.663zm4.935-1.422a1.11 1.11 0 1 0 0 2.219 1.11 1.11 0 0 0 0-2.22zM15 30C6.73 30 0 23.271 0 15 0 6.73 6.73 0 15 0s15 6.73 15 15c0 8.271-6.73 15-15 15z"/>
</svg>
