<svg xmlns="http://www.w3.org/2000/svg" width="30" height="30" viewBox="0 0 30 30">
    <path fill="#000" fill-rule="evenodd" d="M15 30C6.73 30 0 23.271 0 15 0 6.73 6.73 0 15 0s15 6.73 15 15c0 8.271-6.73 15-15 15zm-2.352-14.93v8.694c0 .126.101.227.226.227h3.228a.226.226 0 0 0 .227-.227V14.93h2.34c.118 0 .216-.09.226-.207l.225-2.662a.226.226 0 0 0-.226-.245H16.33v-1.89c0-.442.36-.8.802-.8h1.803a.227.227 0 0 0 .227-.227V6.236a.227.227 0 0 0-.227-.227h-3.048a3.239 3.239 0 0 0-3.238 3.239v2.567h-1.615a.226.226 0 0 0-.226.226v2.662c0 .125.102.226.226.226h1.615v.142z"/>
</svg>
