<svg xmlns="http://www.w3.org/2000/svg" width="30" height="30" viewBox="0 0 30 30">
    <path fill="#000" fill-rule="evenodd" d="M15 30C6.73 30 0 23.272 0 15 0 6.73 6.73 0 15 0c8.271 0 15 6.73 15 15 0 8.271-6.729 15-15 15zm2.678-14.697l-3.985 2.186c-.172.093-.33-.033-.33-.229v-4.486c0-.2.162-.325.336-.226l4.012 2.3c.177.1.146.358-.033.455zm6.303-2.577a3.852 3.852 0 0 0-3.852-3.852h-9.99a3.852 3.852 0 0 0-3.853 3.852v4.682a3.852 3.852 0 0 0 3.852 3.853h9.991a3.852 3.852 0 0 0 3.852-3.853v-4.682z"/>
</svg>
