<?xml version="1.0" encoding="UTF-8"?>
<svg width="68px" height="54px" viewBox="0 0 68 54" version="1.1" xmlns="http://www.w3.org/2000/svg" xmlns:xlink="http://www.w3.org/1999/xlink">
    <!-- Generator: Sketch 55.2 (78181) - https://sketchapp.com -->
    <title>Shape</title>
    <desc>Created with Sketch.</desc>
    <g id="Page-1" stroke="none" stroke-width="1" fill="none" fill-rule="evenodd">
        <g id="Loading" transform="translate(-656.000000, -510.000000)" fill="#FFFFFF" fill-rule="nonzero">
            <path d="M679.219512,546.357717 L679.219512,546.367347 C678.270919,537.124381 673.863336,525.607787 659.317073,518.816327 C660.137645,526.190905 663.655536,545.734476 678.181627,546.357717 L679.219512,546.357717 Z M719.577236,536.722286 L719.577236,536.751918 C718.901177,536.832805 718.219789,536.8595 717.539467,536.831203 C714.252709,536.687849 711.177003,535.147257 709.066485,532.586635 C708.824337,532.258473 708.703742,531.856119 708.725391,531.44861 C709.359079,519.338509 700.593769,515.212735 695.825918,513.857143 C700.652128,525.413314 705.732027,530.58795 705.956136,530.825539 C706.287178,531.151586 706.47347,531.597272 706.473106,532.062337 C706.443794,540.046664 699.179829,545.587561 684.301479,549.020589 C683.784478,549.137886 683.264179,549.240084 682.741242,549.327052 C682.789215,551.308112 682.720878,553.290284 682.536585,555.263308 C685.051885,552.681329 688.591266,550.158614 692.968991,549.812107 C693.417224,549.787313 693.86648,549.787313 694.314713,549.812107 C699.443111,550.039819 704.493963,553.779578 707.789249,556.836735 C707.165154,550.573994 707.55528,542.440974 714.458165,541.006363 C716.755484,540.52024 718.67014,538.918516 719.577236,536.722286 Z M679.703942,563.998833 C679.527434,563.971563 679.355992,563.918133 679.195286,563.840309 C678.391074,563.497063 677.969692,562.595374 678.217595,561.746348 C679.18284,557.887667 679.623527,553.916802 679.527786,549.940713 L678.139423,549.940713 C657.360289,549.017905 656.001374,517.498343 656.001374,516.14915 C655.978351,515.568538 656.245852,515.014474 656.715099,514.67084 C657.184239,514.335238 657.79196,514.260528 658.328609,514.472484 C676.340387,521.74481 681.620236,535.346605 682.69591,546.140947 C683.043372,546.08092 683.389121,546.01139 683.732765,545.932433 C696.444347,543.015376 702.800138,538.779334 703.289251,532.985318 C701.58793,531.100138 696.307278,524.601987 691.692429,512.359275 C691.479717,511.79807 691.568228,511.1673 691.927214,510.686084 C692.281647,510.208819 692.860275,509.95146 693.452646,510.007611 C693.648077,510.027393 712.892141,512.25983 712.392587,531.16991 C713.88643,532.663725 715.871527,533.543494 717.966387,533.639999 C719.259417,533.678355 720.548556,533.480028 721.770063,533.054823 C722.321496,532.867861 722.930777,532.984665 723.373668,533.362247 C723.821554,533.741288 724.052349,534.31724 723.989945,534.900172 C723.657712,537.787021 721.447736,543.462077 715.404634,544.731874 C711.26819,545.595068 710.241776,551.051719 712.148432,561.915297 C712.287911,562.694552 711.883931,563.468994 711.170742,563.790587 C710.470165,564.129971 709.627411,563.935617 709.146826,563.323836 C709.068119,563.234817 701.412042,553.908895 694.332354,553.591579 C694.006806,553.570264 693.68021,553.570264 693.354663,553.591579 C686.157716,554.166864 681.268728,563.006521 681.268728,563.096075 C680.957913,563.673231 680.352344,564.022893 679.703942,563.998833 Z" id="Shape"></path>
        </g>
    </g>
</svg>