<svg xmlns="http://www.w3.org/2000/svg" width="96" height="24" viewBox="0 0 96 24">
    <path fill="#FFF" fill-rule="evenodd" d="M19.74 16.221h.454c6.341-.278 7.877-8.995 8.235-12.284-6.35 3.029-8.274 8.166-8.688 12.289v-.005zm-17.885-4.21A3.17 3.17 0 0 0 4.12 13.92c3.054.639 3.227 4.263 2.95 7.055 1.459-1.363 3.693-3.03 5.962-3.131.199-.011.398-.011.596 0 1.937.154 3.503 1.279 4.616 2.43a22.734 22.734 0 0 1-.09-2.646 11.99 11.99 0 0 1-.691-.137c-6.583-1.53-9.797-4-9.81-7.557 0-.208.082-.407.229-.552.099-.106 2.346-2.412 4.482-7.562-2.11.604-5.988 2.443-5.708 7.84a.788.788 0 0 1-.15.507 5.138 5.138 0 0 1-4.651 1.857v-.014zm17.687 11.988a.752.752 0 0 1-.69-.4c0-.04-2.157-3.97-5.332-4.225a3.277 3.277 0 0 0-.431 0c-3.124.141-6.502 4.286-6.536 4.326a.727.727 0 0 1-.893.207.767.767 0 0 1-.432-.833c.842-4.829.389-7.254-1.436-7.638C1.126 14.872.15 12.35.004 11.066a.789.789 0 0 1 .272-.683.726.726 0 0 1 .708-.137 4.65 4.65 0 0 0 1.678.26A3.706 3.706 0 0 0 5.12 9.41C4.9 1.004 13.39.012 13.477.004a.748.748 0 0 1 .673.301.785.785 0 0 1 .103.744c-2.036 5.44-4.365 8.329-5.116 9.167.216 2.575 3.02 4.458 8.628 5.754.151.035.306.066.457.093.475-4.798 2.804-10.843 10.75-14.075a.745.745 0 0 1 .713.088.778.778 0 0 1 .314.657c0 .6-.6 14.608-9.766 15.018h-.613a19.81 19.81 0 0 0 .578 5.247.777.777 0 0 1-.431.931.788.788 0 0 1-.225.07zm23.23-14.64a.73.73 0 0 1-.55.227H39.29v9.615A.8.8 0 0 1 38.5 20a.76.76 0 0 1-.551-.234.8.8 0 0 1-.234-.565V9.586H34.79a.76.76 0 0 1-.564-.228A.8.8 0 0 1 34.791 8h7.43a.8.8 0 0 1 .551 1.358zm4.525 2.514c.185.071.355.179.501.316.134.14.206.329.202.524a.686.686 0 0 1-.063.304.802.802 0 0 1-.162.25.615.615 0 0 1-.236.167.675.675 0 0 1-.576 0 2.508 2.508 0 0 0-.978-.184 2.427 2.427 0 0 0-.98.202 2.54 2.54 0 0 0-.788.56 2.65 2.65 0 0 0-.731 1.847v3.366a.768.768 0 0 1-.743.775.762.762 0 0 1-.743-.775v-7.447a.77.77 0 0 1 .454-.717.724.724 0 0 1 .813.163c.14.147.215.348.207.554v.816a4.093 4.093 0 0 1 1.152-.685c.426-.16.876-.24 1.33-.238.227 0 .454.016.68.047.225.028.446.08.661.155zM49.994 9c.268-.001.524.103.713.291A.99.99 0 0 1 51 10a.978.978 0 0 1-.289.713.99.99 0 0 1-.717.287.949.949 0 0 1-.703-.288 1.009 1.009 0 0 1 0-1.418.929.929 0 0 1 .703-.294zm.994 3c.556.007 1.004.38 1.012.843v7.314a.78.78 0 0 1-.301.598c-.185.162-.443.251-.71.245a1.016 1.016 0 0 1-.695-.245.771.771 0 0 1-.294-.598v-7.314a.749.749 0 0 1 .294-.592c.18-.16.431-.25.694-.251zm9.13 5.238a2.492 2.492 0 0 0 0-2.045 2.768 2.768 0 0 0-1.51-1.416 3.033 3.033 0 0 0-2.21 0 2.805 2.805 0 0 0-.892.569c-.255.244-.46.529-.605.84-.145.327-.22.677-.221 1.03 0 .35.076.698.22 1.022.142.315.347.6.606.842.256.241.558.436.891.575a3.033 3.033 0 0 0 2.212 0c.336-.137.64-.332.898-.575.257-.244.464-.53.612-.842zm.56-4c.425.388.761.85.989 1.362.227.518.34 1.074.332 1.634.029 1.119-.442 2.2-1.301 2.983-.837.797-1.991 1.236-3.188 1.21v.025a4.518 4.518 0 0 1-2.83-.926v2.693a.719.719 0 0 1-.241.557.875.875 0 0 1-.605.224.819.819 0 0 1-.592-.224.719.719 0 0 1-.241-.557v-5.991c-.026-1.12.444-2.202 1.301-2.99 1.74-1.637 4.576-1.653 6.337-.036l.04.036zm16.353 5.72a.9.9 0 0 1 .686.297 1.06 1.06 0 0 1 0 1.441.92.92 0 0 1-.699.304c-2.202 0-3.32-1.144-3.32-3.414V12.18h-.712a.96.96 0 0 1-.693-.297 1.04 1.04 0 0 1 0-1.448.96.96 0 0 1 .693-.297h.736v-1.12a.978.978 0 0 1 .29-.72.985.985 0 0 1 1.41 0c.187.191.29.451.285.72v1.12h.76a.986.986 0 0 1 .7.297 1.067 1.067 0 0 1 0 1.448.974.974 0 0 1-.7.297h-.76v5.405c-.059.376.06.758.322 1.028.261.271.633.399 1.002.344zm8.777-1.492c.252-.62.25-1.313-.006-1.93a2.588 2.588 0 0 0-.54-.796 2.338 2.338 0 0 0-.795-.543 2.456 2.456 0 0 0-1.956 0 2.412 2.412 0 0 0-.795.536c-.225.232-.405.501-.534.796a2.568 2.568 0 0 0 0 1.943 2.53 2.53 0 0 0 1.329 1.338c.626.26 1.33.26 1.956 0 .295-.132.564-.316.795-.543.229-.23.412-.503.54-.801h.006zm.87-4.145c.423.415.759.91.987 1.456A4.57 4.57 0 0 1 88 16.516a4.463 4.463 0 0 1-1.316 3.168A4.523 4.523 0 0 1 83.498 21a4.361 4.361 0 0 1-3.18-1.314 4.499 4.499 0 0 1 0-6.365A4.48 4.48 0 0 1 83.499 12a4.48 4.48 0 0 1 3.18 1.321zM69.8 17.471a2.507 2.507 0 0 0-1.33-3.273 2.463 2.463 0 0 0-1.963 0 2.49 2.49 0 0 0-.796.537 2.526 2.526 0 0 0 0 3.538c.23.227.5.41.796.543.628.26 1.334.26 1.963 0 .296-.132.565-.316.795-.543.228-.232.409-.504.535-.803zM67.5 12a4.548 4.548 0 0 1 4.163 2.778c.222.547.336 1.132.336 1.722a4.476 4.476 0 0 1-2.767 4.153c-1.684.699-3.626.32-4.919-.961a4.518 4.518 0 0 1 0-6.372 4.362 4.362 0 0 1 3.188-1.32zM65 9.955v2.358c-.242.16-.529.414-.737.623C63.164 14.042 62.996 15.69 63 16V9.956a.919.919 0 0 1 .287-.684 1.063 1.063 0 0 1 1.42 0 .884.884 0 0 1 .292.684zm29.984 9.045a.973.973 0 0 1 .712.296.991.991 0 0 1 0 1.413.96.96 0 0 1-.712.29h-5.971c-.135 0-.27-.025-.394-.074a1.008 1.008 0 0 1-.413-1.536l4.618-5.398h-3.811a1.031 1.031 0 0 1-.72-.295.972.972 0 0 1-.29-.704.973.973 0 0 1 .293-.7c.19-.186.447-.291.717-.293h5.971c.135 0 .269.025.394.074.122.05.233.123.324.216.09.092.164.198.216.314.055.12.083.251.083.383a.946.946 0 0 1-.242.66l-4.587 5.354h3.812z"/>
</svg>
